name D:\school\WTK\thesis\model\3dpredictsim\Results\batch_windlass\Pog_s1_tmt_bCst_d00_k500_WL10_ig24_act_TTC.mot
datacolumns 128
datarows 4
range 0.56976975 0.60395594
endheader
time	pelvis_tilt	pelvis_list	pelvis_rotation	pelvis_tx	pelvis_ty	pelvis_tz	hip_flexion_l	hip_adduction_l	hip_rotation_l	hip_flexion_r	hip_adduction_r	hip_rotation_r	knee_angle_l	knee_angle_r	ankle_angle_l	ankle_angle_r	subtalar_angle_l	subtalar_angle_r	tmt_angle_l	tmt_angle_r	mtp_angle_l	mtp_angle_r	lumbar_extension	lumbar_bending	lumbar_rotation	arm_flex_l	arm_add_l	arm_rot_l	arm_flex_r	arm_add_r	arm_rot_r	elbow_flex_l	elbow_flex_r	pro_sup_l	pro_sup_r	glut_med1_l/activation	glut_med2_l/activation	glut_med3_l/activation	glut_min1_l/activation	glut_min2_l/activation	glut_min3_l/activation	semimem_l/activation	semiten_l/activation	bifemlh_l/activation	bifemsh_l/activation	sar_l/activation	add_long_l/activation	add_brev_l/activation	add_mag1_l/activation	add_mag2_l/activation	add_mag3_l/activation	tfl_l/activation	pect_l/activation	grac_l/activation	glut_max1_l/activation	glut_max2_l/activation	glut_max3_l/activation	iliacus_l/activation	psoas_l/activation	quad_fem_l/activation	gem_l/activation	peri_l/activation	rect_fem_l/activation	vas_med_l/activation	vas_int_l/activation	vas_lat_l/activation	med_gas_l/activation	lat_gas_l/activation	soleus_l/activation	tib_post_l/activation	flex_dig_l/activation	flex_hal_l/activation	tib_ant_l/activation	per_brev_l/activation	per_long_l/activation	per_tert_l/activation	ext_dig_l/activation	ext_hal_l/activation	ercspn_l/activation	intobl_l/activation	extobl_l/activation	glut_med1_r/activation	glut_med2_r/activation	glut_med3_r/activation	glut_min1_r/activation	glut_min2_r/activation	glut_min3_r/activation	semimem_r/activation	semiten_r/activation	bifemlh_r/activation	bifemsh_r/activation	sar_r/activation	add_long_r/activation	add_brev_r/activation	add_mag1_r/activation	add_mag2_r/activation	add_mag3_r/activation	tfl_r/activation	pect_r/activation	grac_r/activation	glut_max1_r/activation	glut_max2_r/activation	glut_max3_r/activation	iliacus_r/activation	psoas_r/activation	quad_fem_r/activation	gem_r/activation	peri_r/activation	rect_fem_r/activation	vas_med_r/activation	vas_int_r/activation	vas_lat_r/activation	med_gas_r/activation	lat_gas_r/activation	soleus_r/activation	tib_post_r/activation	flex_dig_r/activation	flex_hal_r/activation	tib_ant_r/activation	per_brev_r/activation	per_long_r/activation	per_tert_r/activation	ext_dig_r/activation	ext_hal_r/activation	ercspn_r/activation	intobl_r/activation	extobl_r/activation	
          0.56976975	         -2.91958166	          0.09823911	         -7.62277665	          0.71221219	          0.86083329	          0.00015115	         31.74357103	         -0.84681541	         -1.16514000	        -14.73245647	         -1.79534505	          8.70970078	        -20.65587998	        -18.41658737	         -4.59963814	        -14.95616243	         10.12439637	         19.16476070	          0.00671896	         -2.33473881	         -0.11887467	         34.19275790	          1.51514879	          2.68849956	          2.58589312	        -16.26775441	        -13.71770642	         11.44541885	          4.89047844	        -13.47066657	         17.10956962	         20.15007543	         35.96286320	         86.51662706	         86.51662706	          0.05000068	          0.05000037	          0.05000050	          0.05000089	          0.05000075	          0.05000041	          0.17851730	          0.07990849	          0.17167124	          0.08422731	          0.05000075	          0.10024063	          0.06678152	          0.20194166	          0.13023248	          0.10653766	          0.05949770	          0.05030265	          0.08179540	          0.05000042	          0.05867982	          0.09569879	          0.06007241	          0.07079753	          0.12111771	          0.05000088	          0.05000044	          0.07079574	          0.10316640	          0.10068834	          0.09875234	          0.05949617	          0.05949619	          0.05949615	          0.05748365	          0.05000023	          0.05949607	          0.28648780	          0.08078920	          0.05949640	          0.27096515	          0.48016164	          0.09729323	          0.05000002	          0.12541948	          0.14647262	          0.12131357	          0.08423878	          0.06600282	          0.15130795	          0.11927945	          0.08424217	          0.05001444	          0.05000466	          0.05000220	          0.05000106	          0.08376723	          0.12698136	          0.10566857	          0.06349249	          0.05001611	          0.05004889	          0.17748633	          0.05000391	          0.05000440	          0.05000424	          0.05000492	          0.05003250	          0.35358144	          0.52201137	          0.05000031	          0.05000224	          0.07080048	          0.28708994	          0.07917722	          0.08906867	          0.08069217	          0.13153040	          0.19743059	          0.05000004	          0.13255440	          0.14196207	          0.15182841	          0.20005376	          0.54740378	          0.41097363	          0.59336194	          0.47095025	          0.22615011	          0.05000000	          0.07601779	          0.05658606	
          0.58116515	         -2.90442032	          0.05468910	         -7.81398912	          0.73040126	          0.85934055	         -0.00009190	         31.28091688	         -0.62985583	         -0.91124298	        -14.69645502	         -1.95593749	          8.48854309	        -21.14687905	        -19.82770290	         -4.62870345	        -17.63138611	          9.61097930	         19.44710054	          0.11922674	         -2.82797818	         -0.14558190	         34.94183130	          1.73600899	          2.50678597	          2.63212798	        -17.43998419	        -13.68453486	         11.69596603	          4.58259950	        -13.50866393	         17.35469468	         20.03094623	         36.64914199	         86.51662706	         86.51662706	          0.14100266	          0.05000279	          0.05000046	          0.05000174	          0.05000503	          0.05867408	          0.15002424	          0.06715476	          0.14427089	          0.07078396	          0.05949249	          0.08424135	          0.05612273	          0.16971085	          0.19665337	          0.14985555	          0.05000143	          0.05000187	          0.06874061	          0.05949650	          0.15161290	          0.16486468	          0.05048434	          0.05949760	          0.11157699	          0.05949616	          0.10476344	          0.05949609	          0.19705799	          0.18446019	          0.17366018	          0.05000000	          0.05000002	          0.05000000	          0.15061371	          0.06375468	          0.05000014	          0.49118215	          0.06789447	          0.05000020	          0.44916261	          0.53430119	          0.44390985	          0.05000005	          0.10540132	          0.12309418	          0.10195080	          0.07079360	          0.05546825	          0.12715782	          0.10024140	          0.07079652	          0.05015323	          0.05949727	          0.06013225	          0.05949635	          0.07039988	          0.19246145	          0.20281243	          0.19412040	          0.05000425	          0.05000261	          0.14915788	          0.09353024	          0.08352039	          0.05000198	          0.05000107	          0.05000064	          0.29714646	          0.43869344	          0.05792710	          0.05000535	          0.05950047	          0.24126762	          0.06653980	          0.07485248	          0.06781294	          0.11053688	          0.16591877	          0.05000001	          0.11139744	          0.11930359	          0.12759515	          0.37257407	          0.51537669	          0.38179737	          0.76891529	          0.60983451	          0.33701529	          0.05000010	          0.07079567	          0.05590984	
          0.59256054	         -2.88393047	          0.02096060	         -7.97537195	          0.74865791	          0.85743793	         -0.00031600	         30.69598511	         -0.38371522	         -0.59363836	        -14.44469017	         -2.08742503	          8.26344065	        -22.19573499	        -21.67608552	         -4.21965597	        -19.93744069	          8.99978714	         19.66134329	          0.01983223	         -3.06211851	         -0.16268795	         34.27467185	          1.95296689	          2.29949552	          2.66132421	        -18.55822391	        -13.67029911	         12.05228680	          4.23256690	        -13.56286949	         17.54387105	         19.85087708	         37.33354997	         86.51662706	         86.51662706	          0.21562975	          0.25699466	          0.41814013	          0.05480719	          0.05000086	          0.05000036	          0.12607893	          0.05951536	          0.12124388	          0.05948628	          0.05000049	          0.07079595	          0.08424138	          0.16191858	          0.19860961	          0.16941247	          0.05000017	          0.05950613	          0.07079944	          0.05000046	          0.21911273	          0.21293019	          0.05269071	          0.05000154	          0.09376840	          0.05000049	          0.28649307	          0.05000007	          0.20204487	          0.20570210	          0.21116963	          0.06029180	          0.05644592	          0.05949625	          0.14515773	          0.05357913	          0.05000429	          0.41278474	          0.08488953	          0.06854589	          0.37747196	          0.44902158	          0.37305759	          0.05000008	          0.08857826	          0.10344716	          0.08567852	          0.05949538	          0.05949614	          0.10686227	          0.08424202	          0.05949724	          0.05000171	          0.05000112	          0.05053478	          0.05000025	          0.05916372	          0.16788255	          0.28365709	          0.16313952	          0.08259458	          0.05258747	          0.12535104	          0.07860323	          0.07019004	          0.05008056	          0.05949013	          0.05949894	          0.24971904	          0.41177381	          0.09347763	          0.05006761	          0.05000377	          0.20275899	          0.09743973	          0.09383617	          0.05699009	          0.09289413	          0.13943655	          0.05000001	          0.09361735	          0.10026162	          0.10722976	          0.31310767	          0.45801948	          0.34716061	          0.78279524	          0.75879556	          0.43605106	          0.08878393	          0.05949609	          0.05129494	
          0.60395594	         -2.86114743	          0.00132496	         -8.09822240	          0.76674195	          0.85545134	         -0.00053270	         30.02545845	         -0.10656154	         -0.24594517	        -13.98355110	         -2.20459832	          8.03809691	        -23.41041847	        -23.88172214	         -3.02002246	        -21.90202292	          8.41012482	         19.78880119	          0.44278386	         -3.06211799	         -0.28337464	         32.03149113	          2.15367702	          2.06551387	          2.67675649	        -19.54961316	        -13.66415282	         12.52259585	          3.88259476	        -13.61694044	         17.69823025	         19.55678169	         37.94363983	         86.51662706	         86.51662706	          0.30024112	          0.42909735	          0.58411659	          0.05949771	          0.30540724	          0.39838007	          0.10595552	          0.05001875	          0.10189220	          0.05000188	          0.05000051	          0.05949626	          0.07079567	          0.13607493	          0.16690983	          0.15249968	          0.05000047	          0.05000871	          0.05949935	          0.28608778	          0.26955677	          0.20201945	          0.05000007	          0.05000007	          0.16568724	          0.11920224	          0.24076647	          0.05000008	          0.35425758	          0.34075416	          0.33027628	          0.05949615	          0.05000293	          0.05000008	          0.20379740	          0.06483787	          0.05000441	          0.34690032	          0.07134042	          0.05760564	          0.31722384	          0.37735342	          0.31351409	          0.05000009	          0.07444032	          0.08693600	          0.07200345	          0.05000046	          0.05000044	          0.08980611	          0.07079630	          0.05000152	          0.05022463	          0.05000025	          0.05000061	          0.05000015	          0.05000188	          0.20544790	          0.28509487	          0.28521877	          0.08975397	          0.08843753	          0.10534401	          0.06605845	          0.05898747	          0.05000260	          0.05000135	          0.05000294	          0.20986150	          0.37310121	          0.07855800	          0.05000435	          0.05000082	          0.17039671	          0.08188789	          0.07886064	          0.10842611	          0.07806735	          0.11718115	          0.05949619	          0.07867513	          0.08425896	          0.09011490	          0.41902434	          0.41867200	          0.31944239	          0.65785362	          0.63768447	          0.36645311	          0.11293898	          0.05000001	          0.05000009	
